<svg xmlns="http://www.w3.org/2000/svg" width="1" height="1"><path d="M.88 0c.065 0 .117.047.12.103V1L.876.905.81.85.734.79l.031.092H.117C.053.883 0 .84 0 .78V.103C0 .048.053 0 .118 0h.761zM.597.237H.596l-.01.008A.386.386 0 01.728.31.543.543 0 00.441.262H.432a.448.448 0 00-.164.044S.315.265.417.242L.41.237S.333.234.25.29c0 0-.083.13-.083.292 0 0 .046.073.172.075 0 0 .019-.022.038-.041a.183.183 0 01-.1-.059l.016.008h.003l.003.002L.3.568a.848.848 0 01.044.017.42.42 0 00.084.022.525.525 0 00.148 0A.394.394 0 00.659.585C.677.577.699.568.723.555c0 0-.027.038-.101.058.015.02.036.041.036.041C.785.652.834.58.837.582.837.422.753.29.753.29A.298.298 0 00.595.238L.597.236zM.605.42c.032 0 .059.025.059.055 0 .031-.027.056-.06.056A.057.057 0 01.547.477C.546.446.573.42.605.42zm-.21 0c.032 0 .059.025.059.055 0 .031-.027.056-.059.056A.057.057 0 01.336.477C.336.446.363.42.395.42z" fill="#fff"/></svg>