<svg xmlns="http://www.w3.org/2000/svg" width="1" height="1" fill="#fff"><path d="M.5 0C.224 0 0 .23 0 .513 0 .739.143.93.342.999c.025.005.034-.01.034-.025V.887C.235.918.206.82.206.82.184.759.151.744.151.744.106.712.155.712.155.712.205.716.23.765.23.765c.045.079.117.056.146.043A.11.11 0 0 1 .41.739C.298.726.18.682.18.486A.2.2 0 0 1 .232.348.187.187 0 0 1 .237.213S.279.199.374.265a.468.468 0 0 1 .25 0C.72.2.761.213.761.213a.19.19 0 0 1 .005.135.201.201 0 0 1 .051.138c0 .197-.116.24-.228.253.018.015.034.047.034.095v.14c0 .014.008.03.034.024A.51.51 0 0 0 1 .513.506.506 0 0 0 .5 0"/></svg>