<svg xmlns="http://www.w3.org/2000/svg" data-name="logo art" width="1" height="1" fill="#fff"><path class="cls-1" d="M.997.56L.945.386A.023.025 0 0 0 .943.38L.838.031A.042.045 0 0 0 .798 0a.041.044 0 0 0-.04.031l-.1.334H.342L.242.03A.041.044 0 0 0 .201 0a.042.045 0 0 0-.04.031l-.105.35v.002L.002.56a.06.065 0 0 0 .022.073l.461.362a.024.026 0 0 0 .028 0L.975.633A.06.065 0 0 0 .997.56zM.307.416l.129.428L.127.416zm.257.428l.123-.41.006-.018h.18l-.28.387zM.8.064l.09.3H.708zM.643.416l-.09.298L.5.892.357.416zM.202.064l.09.3h-.18zm-.15.527A.013.014 0 0 1 .048.576l.04-.132.29.403zm.896 0L.622.847V.846l.29-.402.04.132A.013.014 0 0 1 .948.59z"/></svg>