<svg xmlns="http://www.w3.org/2000/svg" width="1" height="1"><path d="M.8 1A.039.039 0 01.777.992L.52.802.38.91a.04.04 0 01-.037.006.043.043 0 01-.026-.03L.25.597.027.468C.011.46 0 .451 0 .433 0 .416.005.408.02.4L.945.003A.032.032 0 01.957 0a.038.038 0 01.03.013C.99.013.99.015.99.015A.045.045 0 011 .048v.005l-.16.91a.044.044 0 01-.024.033A.042.042 0 01.8 1zM.542.711l.23.17.124-.709-.448.47.093.069h.001zM.352.674L.381.8.448.749.361.684a.049.049 0 01-.01-.01zM.126.453C.14.458.402.598.42.609l.019.046C.439.645.35.623.357.615L.844.133z" fill="#fff"/></svg>