<svg xmlns="http://www.w3.org/2000/svg" width="1" height="1"><path d="M1 .328C1 .111.848.048.848.048A1.013 1.013 0 00.502 0H.498a1.013 1.013 0 00-.345.048S0 .11 0 .328L.001.5c.006.213.042.422.252.474.097.023.18.028.247.025.122-.006.19-.04.19-.04L.686.876S.599.902.502.9C.405.896.302.889.287.779A.246.23 0 01.285.746a1.13 1.13 0 00.428.016C.847.747.964.67.979.6 1.002.49 1 .33 1 .33zm-.18.28H.71V.353C.709.299.684.272.636.272c-.054 0-.08.032-.08.096v.14H.444v-.14C.445.304.418.272.365.272.314.272.29.299.29.352v.256H.18V.345A.18.18 0 01.224.217.158.158 0 01.344.17c.056 0 .1.02.128.06L.5.275.528.231C.556.19.6.17.657.17c.049 0 .089.016.12.047A.18.18 0 01.82.345v.263z" fill="#fff"/></svg>