<svg xmlns="http://www.w3.org/2000/svg" width="1" height="1"><path d="M.43.89C.43.912.41.93.387.93.363.93.344.912.344.89c0-.021.02-.04.043-.04C.41.85.43.87.43.89m.267 0c0 .022-.02.04-.043.04C.63.93.61.912.61.89.61.87.63.85.654.85c.023 0 .043.02.043.04M.902.51L.894.5.888.493.882.486A.736.736 0 0 0 .867.471L.864.468.86.464.854.458.85.456A.497.497 0 0 0 .673.352L.663.348.664.345A.16.16 0 0 0 .66.209a.181.181 0 0 0-.11-.09.249.249 0 0 0-.077-.012C.47.102.467.083.494.03L.44 0 .427.017.384.072A.087.087 0 0 0 .328.048L.265.044H.26C.215.044.178.076.175.117L.171.176c-.002.043.033.08.08.082l.045.003a.173.173 0 0 0 .018.096A.513.513 0 0 0 .15.46C0 .6 0 .752 0 .875v.074L.059.89C.07.93.089.966.11 1h.077A.37.37 0 0 1 .111.84L.198.755.153.884.232.83A.577.577 0 0 1 .724.767C.805.79.884.77.925.715L.93.708A.416.416 0 0 1 .874 1h.073A.482.482 0 0 0 1 .77.418.418 0 0 0 .902.51zM.36.258A.289.289 0 0 1 .415.134a.063.063 0 0 0 .058.031c.01 0 .028.001.056.01A.12.12 0 0 1 .6.235c.015.028.016.06.004.089A.113.113 0 0 1 .569.37L.55.35A.07.07 0 0 0 .457.34a.059.059 0 0 0-.024.044A.113.113 0 0 1 .36.258zm.194.213L.531.489A.011.011 0 0 1 .524.49.01.01 0 0 1 .516.487L.511.482A.01.01 0 0 1 .513.468L.536.45.488.396A.012.012 0 0 1 .49.378.014.014 0 0 1 .499.375c.004 0 .008.002.01.005l.134.152A.012.012 0 0 1 .641.55a.016.016 0 0 1-.009.003.015.015 0 0 1-.01-.005L.608.533.561.568a.012.012 0 0 1-.007.003.011.011 0 0 1-.008-.004L.524.543A.01.01 0 0 1 .526.529L.573.493.554.471zM.308.203L.255.2C.243.199.235.19.235.18L.239.12c0-.01.01-.017.02-.017h.002l.063.004a.02.02 0 0 1 .014.006.018.018 0 0 1 .006.014V.13a.372.372 0 0 0-.036.072zM.873.68C.848.715.797.726.741.711a.661.661 0 0 0-.472.03L.343.526.104.76a.388.388 0 0 1 .26-.347.223.223 0 0 0 .097.04.055.055 0 0 0 .01.058l.003.004a.054.054 0 0 0 .01.057l.021.024c.012.014.03.022.05.022a.067.067 0 0 0 .04-.013l.012-.01a.07.07 0 0 0 .04.003.069.069 0 0 0 .027-.012A.058.058 0 0 0 .684.5L.608.416A.17.17 0 0 0 .627.4a.428.428 0 0 1 .179.097L.81.5l.007.008a.394.394 0 0 1 .016.016L.839.53a.226.226 0 0 1 .006.007L.85.543a.237.237 0 0 1 .005.006c.038.048.044.097.018.132zM.307.171L.269.17.272.135l.037.002z" fill="#fff"/></svg>